<svg width="18" height="18" viewBox="0 0 18 18" fill="none" xmlns="http://www.w3.org/2000/svg">
<rect x="1" y="1" width="16" height="3.69231" fill="#1F1F1F" stroke="#18A0FB" stroke-width="0.184615"/>
<rect x="16.4154" y="4.1077" width="0.553846" height="0.553846" fill="white" stroke="#18A0FB" stroke-width="0.0615385"/>
<rect x="1.03077" y="4.1077" width="0.553846" height="0.553846" fill="white" stroke="#18A0FB" stroke-width="0.0615385"/>
<rect x="16.4154" y="1.03077" width="0.553846" height="0.553846" fill="white" stroke="#18A0FB" stroke-width="0.0615385"/>
<rect x="1.03077" y="1.03077" width="0.553846" height="0.553846" fill="white" stroke="#18A0FB" stroke-width="0.0615385"/>
<rect x="1" y="7.15384" width="16" height="3.69231" fill="#1F1F1F" stroke="#18A0FB" stroke-width="0.184615"/>
<rect x="16.4154" y="10.2615" width="0.553846" height="0.553846" fill="white" stroke="#18A0FB" stroke-width="0.0615385"/>
<rect x="1.03077" y="10.2615" width="0.553846" height="0.553846" fill="white" stroke="#18A0FB" stroke-width="0.0615385"/>
<rect x="16.4154" y="7.18461" width="0.553846" height="0.553846" fill="white" stroke="#18A0FB" stroke-width="0.0615385"/>
<rect x="1.03077" y="7.18461" width="0.553846" height="0.553846" fill="white" stroke="#18A0FB" stroke-width="0.0615385"/>
<rect x="1" y="13.3077" width="16" height="3.69231" fill="#1F1F1F" stroke="#18A0FB" stroke-width="0.184615"/>
<rect x="16.4154" y="16.4154" width="0.553846" height="0.553846" fill="white" stroke="#18A0FB" stroke-width="0.0615385"/>
<rect x="1.03077" y="16.4154" width="0.553846" height="0.553846" fill="white" stroke="#18A0FB" stroke-width="0.0615385"/>
<rect x="16.4154" y="13.3384" width="0.553846" height="0.553846" fill="white" stroke="#18A0FB" stroke-width="0.0615385"/>
<rect x="1.03077" y="13.3384" width="0.553846" height="0.553846" fill="white" stroke="#18A0FB" stroke-width="0.0615385"/>
</svg>
