<svg width="514" height="514" viewBox="0 0 514 514" fill="none" xmlns="http://www.w3.org/2000/svg">
<rect x="1" y="1" width="512" height="118.154" fill="#1F1F1F" stroke="#18A0FB" stroke-width="0.738462"/>
<rect x="493.431" y="99.5846" width="19.4462" height="19.4462" fill="white" stroke="#18A0FB" stroke-width="0.246154"/>
<rect x="1.12308" y="99.5846" width="19.4462" height="19.4462" fill="white" stroke="#18A0FB" stroke-width="0.246154"/>
<rect x="493.431" y="1.12308" width="19.4462" height="19.4462" fill="white" stroke="#18A0FB" stroke-width="0.246154"/>
<rect x="1.12308" y="1.12308" width="19.4462" height="19.4462" fill="white" stroke="#18A0FB" stroke-width="0.246154"/>
<rect x="1" y="197.923" width="512" height="118.154" fill="#1F1F1F" stroke="#18A0FB" stroke-width="0.738462"/>
<rect x="493.431" y="296.508" width="19.4462" height="19.4462" fill="white" stroke="#18A0FB" stroke-width="0.246154"/>
<rect x="1.12308" y="296.508" width="19.4462" height="19.4462" fill="white" stroke="#18A0FB" stroke-width="0.246154"/>
<rect x="493.431" y="198.046" width="19.4462" height="19.4462" fill="white" stroke="#18A0FB" stroke-width="0.246154"/>
<rect x="1.12308" y="198.046" width="19.4462" height="19.4462" fill="white" stroke="#18A0FB" stroke-width="0.246154"/>
<rect x="1" y="394.846" width="512" height="118.154" fill="#1F1F1F" stroke="#18A0FB" stroke-width="0.738462"/>
<rect x="493.431" y="493.431" width="19.4462" height="19.4462" fill="white" stroke="#18A0FB" stroke-width="0.246154"/>
<rect x="1.12308" y="493.431" width="19.4462" height="19.4462" fill="white" stroke="#18A0FB" stroke-width="0.246154"/>
<rect x="493.431" y="394.969" width="19.4462" height="19.4462" fill="white" stroke="#18A0FB" stroke-width="0.246154"/>
<rect x="1.12308" y="394.969" width="19.4462" height="19.4462" fill="white" stroke="#18A0FB" stroke-width="0.246154"/>
</svg>
