<svg width="37" height="36" viewBox="0 0 37 36" fill="none" xmlns="http://www.w3.org/2000/svg">
<path d="M25.116 22.75H17.5746V25H25.116V22.75ZM28.1326 28H7.01657L28.1326 7V28ZM7.77072 10.75H10.7873V7.75H13.0497V10.75H16.0663V13H13.0497V16H10.7873V13H7.77072V10.75ZM28.1326 4H7.01657C5.34238 4 4 5.335 4 7V28C4 28.7956 4.31782 29.5587 4.88353 30.1213C5.44925 30.6839 6.21653 31 7.01657 31H28.1326C28.9326 31 29.6999 30.6839 30.2656 30.1213C30.8314 29.5587 31.1492 28.7956 31.1492 28V7C31.1492 5.335 29.7917 4 28.1326 4Z" fill="#F5F5F5"/>
</svg>
