<svg width="37" height="36" viewBox="0 0 37 36" fill="none" xmlns="http://www.w3.org/2000/svg">
<path d="M18.0995 1.125C8.72819 1.125 1.13123 8.68022 1.13123 18C1.13123 27.3198 8.72819 34.875 18.0995 34.875C27.4707 34.875 35.0677 27.3198 35.0677 18C35.0677 8.68022 27.4707 1.125 18.0995 1.125ZM16.544 32.5441C13.9326 32.266 11.4434 31.2987 9.33425 29.7422C7.22512 28.1858 5.57279 26.0968 4.54842 23.6917C4.52268 23.6313 4.4985 23.5705 4.47368 23.5098L16.544 30.2301V32.5441ZM16.544 27.6516L3.59791 20.4441C3.46175 19.6364 3.39343 18.8189 3.39366 18C3.39366 17.5354 3.41539 17.0744 3.45884 16.617L16.544 23.902V27.6516ZM16.544 21.3235L3.87577 14.2706C4.05264 13.6013 4.27743 12.9454 4.54842 12.308C4.67884 12.0011 4.81946 11.6998 4.97029 11.4041L16.544 17.8547V21.3235ZM16.544 15.2755L6.14491 9.47946C6.61311 8.83151 7.13348 8.22247 7.7009 7.65837C7.87624 7.48399 8.05535 7.31459 8.23823 7.15015L16.544 11.6738V15.2755ZM16.544 9.10856L10.2058 5.65671C12.1185 4.44449 14.2883 3.69107 16.544 3.45593V9.10856ZM32.8053 18C32.8092 21.7582 31.3566 25.3734 28.7495 28.094C26.1424 30.8146 22.5813 32.4314 18.8065 32.6082V3.3918C22.5812 3.56888 26.1421 5.18572 28.7492 7.90628C31.3562 10.6268 32.8089 14.2418 32.8053 18Z" fill="#F5F5F5"/>
</svg>
