<svg width="48" height="48" viewBox="0 0 48 48" fill="none" xmlns="http://www.w3.org/2000/svg">
<path d="M48 24C48 37.2548 37.2548 48 24 48C10.7452 48 0 37.2548 0 24C0 10.7452 10.7452 0 24 0C37.2548 0 48 10.7452 48 24ZM0.833858 24C0.833858 36.7943 11.2057 47.1661 24 47.1661C36.7943 47.1661 47.1661 36.7943 47.1661 24C47.1661 11.2057 36.7943 0.833858 24 0.833858C11.2057 0.833858 0.833858 11.2057 0.833858 24Z" fill="var(--primary-foreground)"/>
<path d="M34.5 12H29.25L27.75 10.5H20.25L18.75 12H13.5V15H34.5V12ZM15 34.5C15 35.2956 15.3161 36.0587 15.8787 36.6213C16.4413 37.1839 17.2044 37.5 18 37.5H30C30.7956 37.5 31.5587 37.1839 32.1213 36.6213C32.6839 36.0587 33 35.2956 33 34.5V16.5H15V34.5Z" fill="var(--primary-foreground)"/>
</svg>
