<svg width="48" height="48" viewBox="0 0 48 48" fill="none" xmlns="http://www.w3.org/2000/svg">
<path d="M48 24C48 37.2548 37.2548 48 24 48C10.7452 48 0 37.2548 0 24C0 10.7452 10.7452 0 24 0C37.2548 0 48 10.7452 48 24ZM0.833858 24C0.833858 36.7943 11.2057 47.1661 24 47.1661C36.7943 47.1661 47.1661 36.7943 47.1661 24C47.1661 11.2057 36.7943 0.833858 24 0.833858C11.2057 0.833858 0.833858 11.2057 0.833858 24Z" fill="#18A0FB"/>
<path fill-rule="evenodd" clip-rule="evenodd" d="M11.4 36.6C11.4 36.1226 11.5896 35.6647 11.9272 35.3272C12.2648 34.9896 12.7226 34.8 13.2 34.8H34.8C35.2774 34.8 35.7352 34.9896 36.0728 35.3272C36.4104 35.6647 36.6 36.1226 36.6 36.6C36.6 37.0774 36.4104 37.5352 36.0728 37.8728C35.7352 38.2103 35.2774 38.4 34.8 38.4H13.2C12.7226 38.4 12.2648 38.2103 11.9272 37.8728C11.5896 37.5352 11.4 37.0774 11.4 36.6ZM17.3274 22.7274C17.6649 22.3899 18.1227 22.2004 18.6 22.2004C19.0773 22.2004 19.535 22.3899 19.8726 22.7274L22.2 25.0548V11.4C22.2 10.9226 22.3896 10.4647 22.7272 10.1272C23.0648 9.78962 23.5226 9.59998 24 9.59998C24.4774 9.59998 24.9352 9.78962 25.2728 10.1272C25.6104 10.4647 25.8 10.9226 25.8 11.4V25.0548L28.1274 22.7274C28.2934 22.5555 28.4921 22.4183 28.7117 22.324C28.9313 22.2297 29.1675 22.18 29.4065 22.1779C29.6455 22.1758 29.8825 22.2214 30.1037 22.3119C30.3249 22.4024 30.5259 22.5361 30.6949 22.7051C30.8639 22.8741 30.9976 23.075 31.0881 23.2963C31.1786 23.5175 31.2241 23.7545 31.222 23.9935C31.22 24.2325 31.1703 24.4687 31.076 24.6883C30.9816 24.9079 30.8445 25.1065 30.6726 25.2726L25.2726 30.6726C24.935 31.01 24.4773 31.1996 24 31.1996C23.5227 31.1996 23.0649 31.01 22.7274 30.6726L17.3274 25.2726C16.9899 24.935 16.8004 24.4773 16.8004 24C16.8004 23.5227 16.9899 23.0649 17.3274 22.7274Z" fill="#18A0FB"/>
</svg>
