<svg width="172" height="172" viewBox="0 0 172 172" fill="none" xmlns="http://www.w3.org/2000/svg">
<path d="M158.283 24.0713C157.32 20.2873 152.641 17.1999 147.877 17.1999H24.1231C19.3501 17.1999 14.6717 20.2873 13.7171 24.0713L11.9885 34.3999H160.003L158.283 24.0713ZM166.943 42.9999H5.04828C4.35364 43.0003 3.66676 43.1459 3.03163 43.4272C2.3965 43.7085 1.82713 44.1193 1.35999 44.6334C0.892847 45.1475 0.538233 45.7535 0.318864 46.4126C0.0994945 47.0717 0.0202057 47.7694 0.0860766 48.4609L8.02388 148.814C8.18201 150.452 8.94424 151.972 10.1621 153.079C11.3799 154.185 12.966 154.799 14.6115 154.8H157.38C159.026 154.799 160.612 154.185 161.829 153.079C163.047 151.972 163.81 150.452 163.968 148.814L171.905 48.4609C171.971 47.7694 171.892 47.0717 171.673 46.4126C171.453 45.7535 171.099 45.1475 170.632 44.6334C170.164 44.1193 169.595 43.7085 168.96 43.4272C168.325 43.1459 167.638 43.0003 166.943 42.9999ZM106.967 72.0248C109.106 72.0248 111.158 72.8747 112.671 74.3876C114.184 75.9004 115.034 77.9522 115.034 80.0916C115.034 82.2311 114.184 84.2829 112.671 85.7957C111.158 87.3086 109.106 88.1584 106.967 88.1584C104.827 88.1584 102.776 87.3086 101.263 85.7957C99.75 84.2829 98.9001 82.2311 98.9001 80.0916C98.9001 77.9522 99.75 75.9004 101.263 74.3876C102.776 72.8747 104.827 72.0248 106.967 72.0248ZM47.3001 120.4L68.6797 71.2595L92.9919 110.613L113.838 100.259L124.7 120.4H47.3001Z" fill="#F5F5F5"/>
</svg>
