<svg width="36" height="36" viewBox="0 0 36 36" fill="none" xmlns="http://www.w3.org/2000/svg">
<path d="M33.0907 27L13.5 7.40925C13.0714 7.00019 12.5017 6.77196 11.9092 6.77196C11.3168 6.77196 10.7471 7.00019 10.3185 7.40925L7.40924 10.3185C6.98798 10.7407 6.7514 11.3128 6.7514 11.9093C6.7514 12.5057 6.98798 13.0778 7.40924 13.5L26.9989 33.0907C27.4211 33.512 27.9932 33.7486 28.5896 33.7486C29.1861 33.7486 29.7581 33.512 30.1804 33.0907L33.0907 30.1815C33.5126 29.7596 33.7495 29.1874 33.7495 28.5907C33.7495 27.9941 33.5126 27.4219 33.0907 27ZM8.99999 11.9093L11.9092 9L17.5342 14.625L14.6239 17.5354L8.99887 11.9104L8.99999 11.9093Z" fill="#F5F5F5"/>
<path d="M2.25 18L4.5 15.75L6.75 18L4.5 20.25L2.25 18Z" fill="#F5F5F5"/>
<path d="M15.75 4.5L18 2.25L20.25 4.5L18 6.75L15.75 4.5Z" fill="#F5F5F5"/>
<path d="M2.25 4.5L4.5 2.25L6.75 4.5L4.5 6.75L2.25 4.5Z" fill="#F5F5F5"/>
</svg>
