<svg width="37" height="36" viewBox="0 0 37 36" fill="none" xmlns="http://www.w3.org/2000/svg">
<path d="M31 18C31 25.1797 25.1797 31 18 31C10.8203 31 5 25.1797 5 18C5 10.8203 10.8203 5 18 5C25.1797 5 31 10.8203 31 18ZM7.6 18C7.6 23.7438 12.2562 28.4 18 28.4C23.7438 28.4 28.4 23.7438 28.4 18C28.4 12.2562 23.7438 7.6 18 7.6C12.2562 7.6 7.6 12.2562 7.6 18Z" fill="#EAEAEA"/>
<path d="M33 18C33 26.2843 26.2843 33 18 33C9.71573 33 3 26.2843 3 18C3 9.71573 9.71573 3 18 3C26.2843 3 33 9.71573 33 18ZM6 18C6 24.6274 11.3726 30 18 30C24.6274 30 30 24.6274 30 18C30 11.3726 24.6274 6 18 6C11.3726 6 6 11.3726 6 18Z" fill="#CECDCD"/>
<path d="M36 18C36 27.9411 27.9411 36 18 36C8.05887 36 0 27.9411 0 18C0 8.05887 8.05887 0 18 0C27.9411 0 36 8.05887 36 18ZM3.6 18C3.6 25.9529 10.0471 32.4 18 32.4C25.9529 32.4 32.4 25.9529 32.4 18C32.4 10.0471 25.9529 3.6 18 3.6C10.0471 3.6 3.6 10.0471 3.6 18Z" fill="#F5F5F5"/>
</svg>
