<svg width="36" height="36" viewBox="0 0 36 36" fill="none" xmlns="http://www.w3.org/2000/svg">
<path fill-rule="evenodd" clip-rule="evenodd" d="M18 1.70398L8.45401 11.25C6.48755 13.2161 5.1762 15.7415 4.6992 18.481C4.2222 21.2205 4.60281 24.0405 5.78901 26.5556C6.97522 29.0706 8.90915 31.158 11.3265 32.5325C13.7438 33.9069 16.5266 34.5013 19.2945 34.2345C21.8426 33.9892 24.2684 33.0244 26.2891 31.4528C28.3097 29.8812 29.8418 27.7674 30.7068 25.3581C31.5717 22.9488 31.7338 20.3432 31.1742 17.8453C30.6146 15.3473 29.3562 13.06 27.546 11.25L18 1.70398ZM10.575 13.371L18 5.94598V31.296C15.9232 31.2961 13.893 30.6804 12.1661 29.5267C10.4393 28.3729 9.09334 26.733 8.29856 24.8143C7.50377 22.8955 7.29584 20.7842 7.70105 18.7473C8.10625 16.7104 9.1064 14.8394 10.575 13.371Z" fill="#F5F5F5"/>
</svg>
