<svg version="1.1" id="Layer_1" xmlns="http://www.w3.org/2000/svg" xmlns:xlink="http://www.w3.org/1999/xlink" x="0px" y="0px"
	 width="100%" viewBox="0 0 1983 793" enable-background="new 0 0 1983 793" xml:space="preserve">
<path fill="#000000" opacity="1.000000" stroke="none" 
	d="
M1350.000000,794.000000 
	C900.000061,794.000000 450.500153,794.000000 1.000181,794.000000 
	C1.000121,529.666809 1.000121,265.333588 1.000060,1.000287 
	C661.999756,1.000192 1322.999512,1.000192 1983.999512,1.000096 
	C1983.999634,265.333038 1983.999634,529.666077 1983.999756,793.999573 
	C1772.833374,794.000000 1561.666626,794.000000 1350.000000,794.000000 
M1737.084717,390.252838 
	C1736.939697,390.053589 1736.794800,389.854309 1736.704102,388.897156 
	C1747.075317,354.135040 1757.470581,319.380035 1767.757080,284.592896 
	C1768.359985,282.554138 1768.086060,280.256134 1768.220215,278.078827 
	C1766.029175,278.312317 1763.725586,278.188080 1761.665161,278.836609 
	C1746.910278,283.481018 1732.154175,288.135620 1717.538452,293.191986 
	C1715.329468,293.956146 1712.988281,296.520203 1712.191772,298.775574 
	C1709.815796,305.504272 1708.276123,312.522827 1706.235840,319.376343 
	C1691.515381,368.824158 1676.749023,418.258301 1662.006348,467.699493 
	C1660.418335,473.024841 1661.036865,473.901001 1666.578003,473.904144 
	C1679.910645,473.911682 1693.243652,473.780212 1706.575562,473.865417 
	C1710.534058,473.890747 1712.753662,472.274048 1713.784302,468.478577 
	C1715.439941,462.381104 1717.308350,456.341522 1719.079712,450.275391 
	C1723.449585,435.310852 1727.815552,420.345123 1732.374512,404.723633 
	C1734.557739,407.055237 1736.438354,408.892700 1738.126099,410.892883 
	C1754.562622,430.372833 1771.007568,449.846069 1787.338013,469.414734 
	C1789.878906,472.459351 1792.608398,474.070068 1796.703979,474.016663 
	C1813.367676,473.799347 1830.034668,473.861786 1846.699341,473.697906 
	C1848.397949,473.681244 1850.088257,472.838837 1851.782471,472.379578 
	C1851.054565,470.844574 1850.619629,469.058533 1849.553101,467.813629 
	C1839.255737,455.793427 1828.881104,443.838806 1818.470337,431.916290 
	C1808.849487,420.898529 1799.157471,409.942932 1789.120850,398.532715 
	C1819.872803,378.581940 1850.255371,358.870728 1880.638062,339.159515 
	C1880.459717,338.615753 1880.281494,338.071991 1880.103149,337.528229 
	C1878.415283,337.303467 1876.727783,336.888031 1875.039307,336.884033 
	C1861.206665,336.851379 1847.351929,337.384613 1833.548218,336.762329 
	C1822.367188,336.258301 1812.478149,338.062897 1804.223511,346.185608 
	C1802.003784,348.369873 1799.081421,349.849274 1796.449219,351.603577 
	C1776.784912,364.708984 1757.112671,377.802307 1737.084717,390.252838 
M1145.471924,275.029327 
	C1101.664673,259.488861 1057.864502,260.534515 1014.328613,275.802673 
	C979.008789,288.189423 949.661133,308.715698 930.799377,341.846893 
	C916.937134,366.196411 912.420593,392.228027 922.193298,419.185486 
	C930.993225,443.459808 948.981873,459.661194 971.560486,471.104553 
	C998.583008,484.800201 1027.521362,489.010468 1057.438843,487.744476 
	C1066.024048,487.381165 1074.576660,486.246155 1083.144165,485.464996 
	C1083.280151,485.047394 1083.416138,484.629791 1083.552124,484.212189 
	C1081.978638,482.849487 1080.484863,481.379303 1078.818481,480.141479 
	C1067.590820,471.801453 1056.229004,463.638611 1045.114380,455.151428 
	C1039.342163,450.743866 1033.149292,447.927704 1026.072754,446.010406 
	C997.924622,438.384125 971.951965,410.823364 982.562134,372.072083 
	C988.214722,351.427216 1000.005798,334.971649 1017.507263,323.070435 
	C1048.216797,302.187561 1081.344116,295.974121 1116.635376,310.066315 
	C1140.568359,319.622986 1154.130371,341.835938 1151.708130,366.615814 
	C1149.560669,388.584534 1139.522583,406.607086 1123.781616,422.043030 
	C1117.168945,428.527618 1111.534058,429.641235 1102.487061,427.169922 
	C1075.972778,419.927185 1048.555786,419.209900 1021.201416,418.983643 
	C1020.203613,418.975342 1019.201233,419.521606 1017.339905,420.057159 
	C1018.984680,421.235779 1019.793701,422.002655 1020.748840,422.472412 
	C1042.045288,432.946106 1061.936646,445.751190 1080.479980,460.429321 
	C1105.023438,479.856934 1128.863892,500.170868 1153.193481,519.872925 
	C1155.944702,522.100830 1159.882202,524.017578 1163.304932,524.078064 
	C1188.456055,524.522705 1213.615967,524.470947 1238.773315,524.523743 
	C1240.432007,524.527222 1242.091675,524.103760 1245.298218,523.669250 
	C1215.796143,500.946899 1187.566284,479.204437 1158.993164,457.197601 
	C1161.838501,455.095123 1164.230713,453.334198 1166.615967,451.564056 
	C1183.759888,438.840912 1197.781372,423.431763 1206.330566,403.679260 
	C1219.909912,372.305298 1219.463379,341.794678 1198.940430,313.245544 
	C1185.673706,294.790314 1167.118530,283.297699 1145.471924,275.029327 
M357.460144,363.584869 
	C311.540131,363.584869 265.620148,363.584869 219.158615,363.584869 
	C223.416931,349.377747 227.655655,336.077484 231.301285,322.616577 
	C232.577255,317.905273 234.662170,316.576111 239.435593,316.594086 
	C289.931732,316.784271 340.428986,316.662292 390.925262,316.831207 
	C396.566650,316.850067 400.252899,315.014648 403.202026,310.175171 
	C408.656494,301.224487 414.669403,292.615692 420.303162,283.771179 
	C421.282867,282.233154 421.542389,280.236359 422.134552,278.451447 
	C420.328949,277.962402 418.524628,277.051575 416.717560,277.046143 
	C374.387177,276.918488 332.056519,276.865143 289.725891,276.848328 
	C255.561417,276.834778 221.396469,276.978821 187.232880,276.814301 
	C181.914261,276.788696 179.337021,278.648895 178.258682,283.817535 
	C177.037155,289.672455 175.292313,295.431549 173.539230,301.160126 
	C155.921280,358.730682 138.251266,416.285278 120.609093,473.848389 
	C119.255859,478.263641 120.345978,479.538208 124.718948,478.362396 
	C145.299057,472.828674 165.891373,467.331024 186.366776,461.429962 
	C188.713913,460.753540 191.391357,457.970459 192.158905,455.596252 
	C196.975143,440.698700 201.297546,425.641388 205.774567,410.634308 
	C208.056320,402.985901 208.048080,402.940430 216.045975,402.935059 
	C257.876587,402.906891 299.707336,402.945374 341.537384,402.784637 
	C344.089661,402.774811 347.767883,402.048706 348.999115,400.301025 
	C356.280518,389.965485 363.056366,379.269592 369.858307,368.603119 
	C371.899567,365.402161 370.864197,363.765747 366.940430,363.585297 
	C364.113770,363.455353 361.275513,363.578491 357.460144,363.584869 
M523.425171,467.964813 
	C557.527466,453.192047 569.808044,419.672943 568.728149,389.700562 
	C568.506287,383.543091 566.759583,377.126892 564.326172,371.422760 
	C557.579346,355.607361 544.010315,347.509827 528.330750,343.127777 
	C501.587219,335.653625 474.433350,335.446869 447.196991,340.536957 
	C430.884857,343.585541 415.838898,349.406525 403.532410,360.949066 
	C387.485687,375.999664 380.231079,395.205963 378.932434,416.608246 
	C377.348663,442.709808 391.108887,462.305359 416.081848,470.384033 
	C423.328064,472.728119 430.885529,474.533173 438.437592,475.433716 
	C466.979340,478.837219 495.276459,478.313293 523.425171,467.964813 
M721.374878,372.883514 
	C713.441406,384.047455 709.728088,396.751038 707.989197,410.120270 
	C703.977356,440.964630 717.729553,462.690796 747.562561,471.110474 
	C779.404846,480.097229 811.725159,480.042511 843.324341,470.774536 
	C885.691650,458.348175 900.322266,416.079773 896.530701,385.731171 
	C893.752563,363.493561 879.130615,350.570953 858.917419,344.127045 
	C831.705750,335.451996 803.859863,335.472595 775.912170,340.712433 
	C754.084961,344.804749 734.950745,353.393951 721.374878,372.883514 
M1268.739868,475.785400 
	C1293.489990,478.514191 1316.578979,473.491058 1338.819092,459.475861 
	C1337.786865,463.903717 1337.271606,466.833344 1336.402100,469.653870 
	C1335.410278,472.871521 1336.606812,473.917206 1339.718506,473.901886 
	C1353.380737,473.834625 1367.043701,473.800140 1380.705811,473.863556 
	C1384.292725,473.880219 1386.177856,472.216370 1387.173218,468.898926 
	C1399.467773,427.920837 1411.763428,386.942902 1424.200806,346.008057 
	C1425.505981,341.712158 1424.092529,340.593170 1420.101074,340.618774 
	C1406.272339,340.707428 1392.441772,340.766479 1378.614136,340.624786 
	C1374.626221,340.583923 1372.783325,341.998810 1371.635254,345.956970 
	C1363.570312,373.761475 1355.266235,401.496857 1346.915527,429.217285 
	C1346.439941,430.796143 1345.170410,432.501495 1343.784058,433.384521 
	C1327.871338,443.520142 1310.436768,446.507111 1292.088135,443.022919 
	C1278.903687,440.519348 1274.779785,432.864441 1278.709473,419.949768 
	C1286.214844,395.284851 1293.771851,370.635620 1301.361938,345.996674 
	C1302.262329,343.073730 1302.834717,340.553589 1298.508789,340.557129 
	C1283.846802,340.569031 1269.181885,340.492615 1254.526367,340.820587 
	C1252.764648,340.859985 1249.981812,342.841248 1249.478882,344.477692 
	C1240.873657,372.480072 1232.067139,400.437134 1224.347900,428.689148 
	C1219.511230,446.390442 1227.788452,462.219452 1244.815430,469.420898 
	C1252.076172,472.491760 1260.146118,473.649109 1268.739868,475.785400 
M602.324951,371.121857 
	C603.687134,371.233673 605.049255,371.345490 606.845276,371.492889 
	C600.205505,392.768707 593.714844,413.410828 587.328430,434.085175 
	C583.069702,447.871857 587.015930,459.730988 599.132935,466.953705 
	C604.604187,470.214966 610.892395,472.548370 617.113220,474.026428 
	C636.125671,478.543823 655.232178,476.151947 674.226990,473.399780 
	C675.980957,473.145660 678.064819,470.906311 678.867249,469.090302 
	C682.224121,461.492645 685.196777,453.722717 688.196594,445.971924 
	C688.807007,444.394745 688.925903,442.627319 689.271362,440.947601 
	C687.581055,440.874725 685.844055,440.512238 684.207886,440.775696 
	C673.212341,442.546387 662.292236,445.381134 651.030457,443.105835 
	C643.164001,441.516479 640.268188,437.053131 642.290771,429.360382 
	C644.065552,422.610138 646.090027,415.921265 648.161987,409.254333 
	C652.099487,396.585114 656.149780,383.950928 660.210205,371.122162 
	C672.867554,371.122162 685.188782,371.246887 697.502136,370.992218 
	C699.422729,370.952454 702.034546,369.676849 703.083801,368.129761 
	C707.752502,361.245636 711.998291,354.072754 716.327026,346.961639 
	C717.304932,345.355225 718.002563,343.578247 719.353943,340.801697 
	C702.026978,340.801697 685.841003,340.801697 669.162292,340.801697 
	C673.992432,324.860321 678.611206,309.782104 683.074402,294.657990 
	C683.581055,292.940948 683.212830,290.965698 683.250244,289.110168 
	C681.383911,289.236755 679.362488,288.939056 677.675354,289.555878 
	C661.728149,295.386108 645.790894,301.252655 629.988220,307.458527 
	C627.923462,308.269348 625.890686,310.791290 625.119934,312.971924 
	C622.461121,320.494568 620.101440,328.150696 618.170410,335.891357 
	C617.190186,339.821045 615.242798,340.857697 611.537231,340.701050 
	C605.715088,340.454956 599.869995,340.761139 594.046814,340.527863 
	C590.543701,340.387482 588.582703,341.410522 587.464905,344.999237 
	C585.188721,352.307220 582.398926,359.454590 579.868225,366.684723 
	C579.461975,367.845276 579.301208,369.091736 578.842651,371.109283 
	C586.806580,371.109283 594.085632,371.109283 602.324951,371.121857 
M1644.780029,450.385071 
	C1645.609985,448.384583 1646.570923,446.425934 1647.227905,444.370148 
	C1647.741455,442.764038 1647.877808,441.037354 1648.181763,439.364227 
	C1646.589722,439.373077 1644.945312,439.122345 1643.413574,439.430603 
	C1626.704224,442.792847 1609.873291,445.563568 1592.811523,444.053314 
	C1584.630249,443.329132 1576.292236,441.621857 1568.599609,438.795868 
	C1557.803101,434.829651 1552.073853,424.829193 1553.151489,413.911499 
	C1554.453247,400.724304 1560.067627,389.652649 1570.715576,381.498291 
	C1582.005249,372.852448 1595.235474,369.867279 1609.076904,369.022797 
	C1627.099609,367.923157 1644.578613,371.399414 1661.900879,375.790985 
	C1665.541870,376.714081 1667.361694,376.150269 1668.366089,372.217590 
	C1670.260498,364.800507 1672.407959,357.423920 1674.945435,350.204590 
	C1676.391602,346.090210 1675.513306,344.296295 1671.244995,343.807709 
	C1652.402100,341.650848 1633.615723,338.378632 1614.716309,337.502014 
	C1592.617798,336.477112 1570.872803,339.942871 1550.347778,349.015198 
	C1528.049561,358.871338 1510.926636,374.022430 1502.822632,397.514435 
	C1496.315430,416.378174 1496.223877,434.958282 1509.785156,451.379669 
	C1518.143677,461.501038 1529.394165,467.315643 1541.763306,470.808441 
	C1571.776611,479.283691 1602.135376,477.599609 1632.497925,473.055878 
	C1634.072021,472.820251 1635.973022,471.034760 1636.693726,469.490936 
	C1639.509521,463.459991 1641.911621,457.235901 1644.780029,450.385071 
M1481.968262,406.477448 
	C1487.949951,386.399292 1493.940796,366.323822 1499.906616,346.240967 
	C1501.389404,341.249268 1500.973633,340.666260 1495.808228,340.657532 
	C1482.318481,340.634735 1468.827881,340.748688 1455.339355,340.627350 
	C1450.961548,340.587982 1448.353638,342.099091 1447.822632,346.674957 
	C1447.653320,348.133636 1446.947021,349.527130 1446.511719,350.958191 
	C1434.658569,389.916473 1422.798828,428.872803 1410.970215,467.838593 
	C1409.334839,473.225616 1409.886475,473.899109 1415.571777,473.901276 
	C1428.894531,473.906311 1442.220825,473.707367 1455.538086,473.973694 
	C1460.485718,474.072662 1462.673340,472.033875 1463.976318,467.507355 
	C1469.769287,447.385681 1475.794434,427.330933 1481.968262,406.477448 
M1457.070923,313.301239 
	C1455.609741,317.246063 1457.043457,318.799438 1461.170532,318.765198 
	C1474.644409,318.653320 1488.121216,318.576569 1501.593262,318.760986 
	C1506.200806,318.824066 1508.601929,317.013855 1509.828857,312.636871 
	C1512.611206,302.710571 1515.504028,292.807465 1518.700317,283.008575 
	C1520.088013,278.754333 1518.751831,277.620819 1514.707153,277.646271 
	C1500.900391,277.733185 1487.091675,277.766663 1473.286133,277.606506 
	C1469.243896,277.559601 1467.367432,279.174713 1466.283569,283.024109 
	C1463.495483,292.926056 1460.318237,302.718384 1457.070923,313.301239 
z"/>
<path fill="#FCFBFC" opacity="1.000000" stroke="none" 
	d="
M1145.850830,275.124512 
	C1167.118530,283.297699 1185.673706,294.790314 1198.940430,313.245544 
	C1219.463379,341.794678 1219.909912,372.305298 1206.330566,403.679260 
	C1197.781372,423.431763 1183.759888,438.840912 1166.615967,451.564056 
	C1164.230713,453.334198 1161.838501,455.095123 1158.993164,457.197601 
	C1187.566284,479.204437 1215.796143,500.946899 1245.298218,523.669250 
	C1242.091675,524.103760 1240.432007,524.527222 1238.773315,524.523743 
	C1213.615967,524.470947 1188.456055,524.522705 1163.304932,524.078064 
	C1159.882202,524.017578 1155.944702,522.100830 1153.193481,519.872925 
	C1128.863892,500.170868 1105.023438,479.856934 1080.479980,460.429321 
	C1061.936646,445.751190 1042.045288,432.946106 1020.748840,422.472412 
	C1019.793701,422.002655 1018.984680,421.235779 1017.339905,420.057159 
	C1019.201233,419.521606 1020.203613,418.975342 1021.201416,418.983643 
	C1048.555786,419.209900 1075.972778,419.927185 1102.487061,427.169922 
	C1111.534058,429.641235 1117.168945,428.527618 1123.781616,422.043030 
	C1139.522583,406.607086 1149.560669,388.584534 1151.708130,366.615814 
	C1154.130371,341.835938 1140.568359,319.622986 1116.635376,310.066315 
	C1081.344116,295.974121 1048.216797,302.187561 1017.507263,323.070435 
	C1000.005798,334.971649 988.214722,351.427216 982.562134,372.072083 
	C971.951965,410.823364 997.924622,438.384125 1026.072754,446.010406 
	C1033.149292,447.927704 1039.342163,450.743866 1045.114380,455.151428 
	C1056.229004,463.638611 1067.590820,471.801453 1078.818481,480.141479 
	C1080.484863,481.379303 1081.978638,482.849487 1083.552124,484.212189 
	C1083.416138,484.629791 1083.280151,485.047394 1083.144165,485.464996 
	C1074.576660,486.246155 1066.024048,487.381165 1057.438843,487.744476 
	C1027.521362,489.010468 998.583008,484.800201 971.560486,471.104553 
	C948.981873,459.661194 930.993225,443.459808 922.193298,419.185486 
	C912.420593,392.228027 916.937134,366.196411 930.799377,341.846893 
	C949.661133,308.715698 979.008789,288.189423 1014.328613,275.802673 
	C1057.864502,260.534515 1101.664673,259.488861 1145.850830,275.124512 
z"/>
<path fill="#FCFBFC" opacity="1.000000" stroke="none" 
	d="
M357.951294,363.586792 
	C361.275513,363.578491 364.113770,363.455353 366.940430,363.585297 
	C370.864197,363.765747 371.899567,365.402161 369.858307,368.603119 
	C363.056366,379.269592 356.280518,389.965485 348.999115,400.301025 
	C347.767883,402.048706 344.089661,402.774811 341.537384,402.784637 
	C299.707336,402.945374 257.876587,402.906891 216.045975,402.935059 
	C208.048080,402.940430 208.056320,402.985901 205.774567,410.634308 
	C201.297546,425.641388 196.975143,440.698700 192.158905,455.596252 
	C191.391357,457.970459 188.713913,460.753540 186.366776,461.429962 
	C165.891373,467.331024 145.299057,472.828674 124.718948,478.362396 
	C120.345978,479.538208 119.255859,478.263641 120.609093,473.848389 
	C138.251266,416.285278 155.921280,358.730682 173.539230,301.160126 
	C175.292313,295.431549 177.037155,289.672455 178.258682,283.817535 
	C179.337021,278.648895 181.914261,276.788696 187.232880,276.814301 
	C221.396469,276.978821 255.561417,276.834778 289.725891,276.848328 
	C332.056519,276.865143 374.387177,276.918488 416.717560,277.046143 
	C418.524628,277.051575 420.328949,277.962402 422.134552,278.451447 
	C421.542389,280.236359 421.282867,282.233154 420.303162,283.771179 
	C414.669403,292.615692 408.656494,301.224487 403.202026,310.175171 
	C400.252899,315.014648 396.566650,316.850067 390.925262,316.831207 
	C340.428986,316.662292 289.931732,316.784271 239.435593,316.594086 
	C234.662170,316.576111 232.577255,317.905273 231.301285,322.616577 
	C227.655655,336.077484 223.416931,349.377747 219.158615,363.584869 
	C265.620148,363.584869 311.540131,363.584869 357.951294,363.586792 
z"/>
<path fill="#FBFBFB" opacity="1.000000" stroke="none" 
	d="
M1737.442993,390.899353 
	C1757.112671,377.802307 1776.784912,364.708984 1796.449219,351.603577 
	C1799.081421,349.849274 1802.003784,348.369873 1804.223511,346.185608 
	C1812.478149,338.062897 1822.367188,336.258301 1833.548218,336.762329 
	C1847.351929,337.384613 1861.206665,336.851379 1875.039307,336.884033 
	C1876.727783,336.888031 1878.415283,337.303467 1880.103149,337.528229 
	C1880.281494,338.071991 1880.459717,338.615753 1880.638062,339.159515 
	C1850.255371,358.870728 1819.872803,378.581940 1789.120850,398.532715 
	C1799.157471,409.942932 1808.849487,420.898529 1818.470337,431.916290 
	C1828.881104,443.838806 1839.255737,455.793427 1849.553101,467.813629 
	C1850.619629,469.058533 1851.054565,470.844574 1851.782471,472.379578 
	C1850.088257,472.838837 1848.397949,473.681244 1846.699341,473.697906 
	C1830.034668,473.861786 1813.367676,473.799347 1796.703979,474.016663 
	C1792.608398,474.070068 1789.878906,472.459351 1787.338013,469.414734 
	C1771.007568,449.846069 1754.562622,430.372833 1738.126099,410.892883 
	C1736.438354,408.892700 1734.557739,407.055237 1732.374512,404.723633 
	C1727.815552,420.345123 1723.449585,435.310852 1719.079712,450.275391 
	C1717.308350,456.341522 1715.439941,462.381104 1713.784302,468.478577 
	C1712.753662,472.274048 1710.534058,473.890747 1706.575562,473.865417 
	C1693.243652,473.780212 1679.910645,473.911682 1666.578003,473.904144 
	C1661.036865,473.901001 1660.418335,473.024841 1662.006348,467.699493 
	C1676.749023,418.258301 1691.515381,368.824158 1706.235840,319.376343 
	C1708.276123,312.522827 1709.815796,305.504272 1712.191772,298.775574 
	C1712.988281,296.520203 1715.329468,293.956146 1717.538452,293.191986 
	C1732.154175,288.135620 1746.910278,283.481018 1761.665161,278.836609 
	C1763.725586,278.188080 1766.029175,278.312317 1768.220215,278.078796 
	C1768.086060,280.256134 1768.359985,282.554138 1767.757080,284.592896 
	C1757.470581,319.380035 1747.075317,354.135040 1736.454834,389.481262 
	C1736.617920,390.343353 1737.030518,390.621368 1737.442993,390.899353 
z"/>
<path fill="#FBFBFC" opacity="1.000000" stroke="none" 
	d="
M523.063477,468.085876 
	C495.276459,478.313293 466.979340,478.837219 438.437592,475.433716 
	C430.885529,474.533173 423.328064,472.728119 416.081848,470.384033 
	C391.108887,462.305359 377.348663,442.709808 378.932434,416.608246 
	C380.231079,395.205963 387.485687,375.999664 403.532410,360.949066 
	C415.838898,349.406525 430.884857,343.585541 447.196991,340.536957 
	C474.433350,335.446869 501.587219,335.653625 528.330750,343.127777 
	C544.010315,347.509827 557.579346,355.607361 564.326172,371.422760 
	C566.759583,377.126892 568.506287,383.543091 568.728149,389.700562 
	C569.808044,419.672943 557.527466,453.192047 523.063477,468.085876 
M507.924255,423.334473 
	C510.417847,414.418610 513.905823,405.641510 515.174011,396.554596 
	C517.117065,382.632050 509.712463,373.153015 496.072815,370.006714 
	C492.520325,369.187225 488.861694,368.528534 485.230774,368.402557 
	C472.877808,367.973846 460.653351,368.984833 451.017303,377.816895 
	C436.870178,390.783661 432.287109,407.684875 433.258423,426.215607 
	C433.653839,433.758850 438.260925,439.345428 445.402649,441.927826 
	C450.342163,443.713928 455.622253,445.138550 460.833374,445.489716 
	C480.188446,446.794067 497.419891,442.917786 507.924255,423.334473 
z"/>
<path fill="#FBFBFB" opacity="1.000000" stroke="none" 
	d="
M721.601135,372.603882 
	C734.950745,353.393951 754.084961,344.804749 775.912170,340.712433 
	C803.859863,335.472595 831.705750,335.451996 858.917419,344.127045 
	C879.130615,350.570953 893.752563,363.493561 896.530701,385.731171 
	C900.322266,416.079773 885.691650,458.348175 843.324341,470.774536 
	C811.725159,480.042511 779.404846,480.097229 747.562561,471.110474 
	C717.729553,462.690796 703.977356,440.964630 707.989197,410.120270 
	C709.728088,396.751038 713.441406,384.047455 721.601135,372.603882 
M843.059082,387.780518 
	C841.325806,378.862152 835.770081,373.326660 827.295898,370.868958 
	C822.862671,369.583221 818.183838,368.641479 813.587952,368.507751 
	C795.539429,367.982452 778.870850,371.541260 770.225647,389.567505 
	C765.978699,398.422668 762.999329,408.209900 761.331177,417.899780 
	C758.979187,431.562347 766.389709,441.035858 779.957581,444.042297 
	C789.830505,446.230011 799.713989,446.190704 809.663208,444.121918 
	C820.987488,441.767151 829.570312,435.695160 834.891846,425.557434 
	C840.929565,414.055298 844.530762,401.846313 843.059082,387.780518 
z"/>
<path fill="#FBFBFB" opacity="1.000000" stroke="none" 
	d="
M1268.294189,475.730682 
	C1260.146118,473.649109 1252.076172,472.491760 1244.815430,469.420898 
	C1227.788452,462.219452 1219.511230,446.390442 1224.347900,428.689148 
	C1232.067139,400.437134 1240.873657,372.480072 1249.478882,344.477692 
	C1249.981812,342.841248 1252.764648,340.859985 1254.526367,340.820587 
	C1269.181885,340.492615 1283.846802,340.569031 1298.508789,340.557129 
	C1302.834717,340.553589 1302.262329,343.073730 1301.361938,345.996674 
	C1293.771851,370.635620 1286.214844,395.284851 1278.709473,419.949768 
	C1274.779785,432.864441 1278.903687,440.519348 1292.088135,443.022919 
	C1310.436768,446.507111 1327.871338,443.520142 1343.784058,433.384521 
	C1345.170410,432.501495 1346.439941,430.796143 1346.915527,429.217285 
	C1355.266235,401.496857 1363.570312,373.761475 1371.635254,345.956970 
	C1372.783325,341.998810 1374.626221,340.583923 1378.614136,340.624786 
	C1392.441772,340.766479 1406.272339,340.707428 1420.101074,340.618774 
	C1424.092529,340.593170 1425.505981,341.712158 1424.200806,346.008057 
	C1411.763428,386.942902 1399.467773,427.920837 1387.173218,468.898926 
	C1386.177856,472.216370 1384.292725,473.880219 1380.705811,473.863556 
	C1367.043701,473.800140 1353.380737,473.834625 1339.718506,473.901886 
	C1336.606812,473.917206 1335.410278,472.871521 1336.402100,469.653870 
	C1337.271606,466.833344 1337.786865,463.903717 1338.819092,459.475861 
	C1316.578979,473.491058 1293.489990,478.514191 1268.294189,475.730682 
z"/>
<path fill="#FBFBFB" opacity="1.000000" stroke="none" 
	d="
M601.844849,371.115570 
	C594.085632,371.109283 586.806580,371.109283 578.842651,371.109283 
	C579.301208,369.091736 579.461975,367.845276 579.868225,366.684723 
	C582.398926,359.454590 585.188721,352.307220 587.464905,344.999237 
	C588.582703,341.410522 590.543701,340.387482 594.046814,340.527863 
	C599.869995,340.761139 605.715088,340.454956 611.537231,340.701050 
	C615.242798,340.857697 617.190186,339.821045 618.170410,335.891357 
	C620.101440,328.150696 622.461121,320.494568 625.119934,312.971924 
	C625.890686,310.791290 627.923462,308.269348 629.988220,307.458527 
	C645.790894,301.252655 661.728149,295.386108 677.675354,289.555878 
	C679.362488,288.939056 681.383911,289.236755 683.250244,289.110168 
	C683.212830,290.965698 683.581055,292.940948 683.074402,294.657990 
	C678.611206,309.782104 673.992432,324.860321 669.162292,340.801697 
	C685.841003,340.801697 702.026978,340.801697 719.353943,340.801697 
	C718.002563,343.578247 717.304932,345.355225 716.327026,346.961639 
	C711.998291,354.072754 707.752502,361.245636 703.083801,368.129761 
	C702.034546,369.676849 699.422729,370.952454 697.502136,370.992218 
	C685.188782,371.246887 672.867554,371.122162 660.210205,371.122162 
	C656.149780,383.950928 652.099487,396.585114 648.161987,409.254333 
	C646.090027,415.921265 644.065552,422.610138 642.290771,429.360382 
	C640.268188,437.053131 643.164001,441.516479 651.030457,443.105835 
	C662.292236,445.381134 673.212341,442.546387 684.207886,440.775696 
	C685.844055,440.512238 687.581055,440.874725 689.271362,440.947601 
	C688.925903,442.627319 688.807007,444.394745 688.196594,445.971924 
	C685.196777,453.722717 682.224121,461.492645 678.867249,469.090302 
	C678.064819,470.906311 675.980957,473.145660 674.226990,473.399780 
	C655.232178,476.151947 636.125671,478.543823 617.113220,474.026428 
	C610.892395,472.548370 604.604187,470.214966 599.132935,466.953705 
	C587.015930,459.730988 583.069702,447.871857 587.328430,434.085175 
	C593.714844,413.410828 600.205505,392.768707 606.845276,371.492889 
	C605.049255,371.345490 603.687134,371.233673 601.844849,371.115570 
z"/>
<path fill="#FBFAFB" opacity="1.000000" stroke="none" 
	d="
M1644.623779,450.734344 
	C1641.911621,457.235901 1639.509521,463.459991 1636.693726,469.490936 
	C1635.973022,471.034760 1634.072021,472.820251 1632.497925,473.055878 
	C1602.135376,477.599609 1571.776611,479.283691 1541.763306,470.808441 
	C1529.394165,467.315643 1518.143677,461.501038 1509.785156,451.379669 
	C1496.223877,434.958282 1496.315430,416.378174 1502.822632,397.514435 
	C1510.926636,374.022430 1528.049561,358.871338 1550.347778,349.015198 
	C1570.872803,339.942871 1592.617798,336.477112 1614.716309,337.502014 
	C1633.615723,338.378632 1652.402100,341.650848 1671.244995,343.807709 
	C1675.513306,344.296295 1676.391602,346.090210 1674.945435,350.204590 
	C1672.407959,357.423920 1670.260498,364.800507 1668.366089,372.217590 
	C1667.361694,376.150269 1665.541870,376.714081 1661.900879,375.790985 
	C1644.578613,371.399414 1627.099609,367.923157 1609.076904,369.022797 
	C1595.235474,369.867279 1582.005249,372.852448 1570.715576,381.498291 
	C1560.067627,389.652649 1554.453247,400.724304 1553.151489,413.911499 
	C1552.073853,424.829193 1557.803101,434.829651 1568.599609,438.795868 
	C1576.292236,441.621857 1584.630249,443.329132 1592.811523,444.053314 
	C1609.873291,445.563568 1626.704224,442.792847 1643.413574,439.430603 
	C1644.945312,439.122345 1646.589722,439.373077 1648.181763,439.364227 
	C1647.877808,441.037354 1647.741455,442.764038 1647.227905,444.370148 
	C1646.570923,446.425934 1645.609985,448.384583 1644.623779,450.734344 
z"/>
<path fill="#FBFAFB" opacity="1.000000" stroke="none" 
	d="
M1481.851929,406.864685 
	C1475.794434,427.330933 1469.769287,447.385681 1463.976318,467.507355 
	C1462.673340,472.033875 1460.485718,474.072662 1455.538086,473.973694 
	C1442.220825,473.707367 1428.894531,473.906311 1415.571777,473.901276 
	C1409.886475,473.899109 1409.334839,473.225616 1410.970215,467.838593 
	C1422.798828,428.872803 1434.658569,389.916473 1446.511719,350.958191 
	C1446.947021,349.527130 1447.653320,348.133636 1447.822632,346.674957 
	C1448.353638,342.099091 1450.961548,340.587982 1455.339355,340.627350 
	C1468.827881,340.748688 1482.318481,340.634735 1495.808228,340.657532 
	C1500.973633,340.666260 1501.389404,341.249268 1499.906616,346.240967 
	C1493.940796,366.323822 1487.949951,386.399292 1481.851929,406.864685 
z"/>
<path fill="#F9F8F9" opacity="1.000000" stroke="none" 
	d="
M1457.183594,312.927856 
	C1460.318237,302.718384 1463.495483,292.926056 1466.283569,283.024109 
	C1467.367432,279.174713 1469.243896,277.559601 1473.286133,277.606506 
	C1487.091675,277.766663 1500.900391,277.733185 1514.707153,277.646271 
	C1518.751831,277.620819 1520.088013,278.754333 1518.700317,283.008575 
	C1515.504028,292.807465 1512.611206,302.710571 1509.828857,312.636871 
	C1508.601929,317.013855 1506.200806,318.824066 1501.593262,318.760986 
	C1488.121216,318.576569 1474.644409,318.653320 1461.170532,318.765198 
	C1457.043457,318.799438 1455.609741,317.246063 1457.183594,312.927856 
z"/>
<path fill="#000000" opacity="1.000000" stroke="none" 
	d="
M1737.263916,390.576111 
	C1737.030518,390.621368 1736.617920,390.343353 1736.427734,389.860199 
	C1736.794800,389.854309 1736.939697,390.053589 1737.263916,390.576111 
z"/>
<path fill="#040303" opacity="1.000000" stroke="none" 
	d="
M507.760742,423.666840 
	C497.419891,442.917786 480.188446,446.794067 460.833374,445.489716 
	C455.622253,445.138550 450.342163,443.713928 445.402649,441.927826 
	C438.260925,439.345428 433.653839,433.758850 433.258423,426.215607 
	C432.287109,407.684875 436.870178,390.783661 451.017303,377.816895 
	C460.653351,368.984833 472.877808,367.973846 485.230774,368.402557 
	C488.861694,368.528534 492.520325,369.187225 496.072815,370.006714 
	C509.712463,373.153015 517.117065,382.632050 515.174011,396.554596 
	C513.905823,405.641510 510.417847,414.418610 507.760742,423.666840 
z"/>
<path fill="#030303" opacity="1.000000" stroke="none" 
	d="
M843.116638,388.194702 
	C844.530762,401.846313 840.929565,414.055298 834.891846,425.557434 
	C829.570312,435.695160 820.987488,441.767151 809.663208,444.121918 
	C799.713989,446.190704 789.830505,446.230011 779.957581,444.042297 
	C766.389709,441.035858 758.979187,431.562347 761.331177,417.899780 
	C762.999329,408.209900 765.978699,398.422668 770.225647,389.567505 
	C778.870850,371.541260 795.539429,367.982452 813.587952,368.507751 
	C818.183838,368.641479 822.862671,369.583221 827.295898,370.868958 
	C835.770081,373.326660 841.325806,378.862152 843.116638,388.194702 
z"/>
</svg>