<svg width="37" height="36" viewBox="0 0 37 36" fill="none" xmlns="http://www.w3.org/2000/svg">
<path d="M8.71048 5.28748C7.41297 6.27768 6.26944 7.45283 5.31683 8.77498L7.12678 10.125C7.9576 8.97908 8.94787 7.95637 10.0679 7.08748L8.71048 5.28748Z" fill="#F5F5F5"/>
<path d="M5.20371 13.8375L3.0544 13.1625C2.50798 14.7165 2.23997 16.3538 2.26255 18H4.52498C4.52039 16.5849 4.74969 15.1786 5.20371 13.8375Z" fill="#F5F5F5"/>
<path d="M3.05441 22.95C3.57903 24.5188 4.34201 25.9984 5.31684 27.3375L7.12679 25.9875C6.30901 24.8488 5.66127 23.5983 5.20372 22.275L3.05441 22.95Z" fill="#F5F5F5"/>
<path d="M8.82336 30.7125C10.1699 31.682 11.6577 32.4407 13.2351 32.9625L13.9138 30.825C12.5832 30.3699 11.3259 29.7258 10.1808 28.9125L8.82336 30.7125Z" fill="#F5F5F5"/>
<path d="M13.2354 3.03747L13.9141 5.17497C15.2626 4.72344 16.6766 4.4954 18.0996 4.49997V2.24997C16.4443 2.22751 14.798 2.49405 13.2354 3.03747Z" fill="#F5F5F5"/>
<path d="M27.3754 30.7125C28.7079 29.7249 29.8891 28.5501 30.8822 27.225L29.0722 25.875C28.231 27.0493 27.1987 28.0759 26.0179 28.9125L27.3754 30.7125Z" fill="#F5F5F5"/>
<path d="M30.9952 22.1625L33.1445 22.8375C33.6366 21.2702 33.9032 19.6416 33.9364 18H31.674C31.6786 19.4151 31.4493 20.8214 30.9952 22.1625Z" fill="#F5F5F5"/>
<path d="M33.0315 13.05C32.5069 11.4812 31.7439 10.0016 30.7691 8.66248L28.9592 10.0125C29.7769 11.1512 30.4247 12.4017 30.8822 13.725L33.0315 13.05Z" fill="#F5F5F5"/>
<path d="M27.2623 5.17505C25.9158 4.20557 24.428 3.44678 22.8506 2.92505L22.1719 5.06255C23.5025 5.51758 24.7599 6.16176 25.9049 6.97505L27.2623 5.17505Z" fill="#F5F5F5"/>
<path d="M22.9637 32.9624L22.285 30.825C20.9364 31.2765 19.5224 31.5045 18.0995 31.5V33.75C19.7436 33.6525 21.3734 33.3887 22.9637 32.9624Z" fill="#F5F5F5"/>
<ellipse cx="18.0994" cy="18" rx="6.03315" ry="6" fill="#F5F5F5"/>
<path d="M18.0995 9L20.7119 13.5H15.487L18.0995 9Z" fill="#F5F5F5"/>
</svg>
