<svg width="37" height="36" viewBox="0 0 37 36" fill="none" xmlns="http://www.w3.org/2000/svg">
<path opacity="0.9" d="M25.7666 30.25C28.8903 30.25 31.4227 27.7316 31.4227 24.625C31.4227 21.5184 28.8903 19 25.7666 19C22.6428 19 20.1105 21.5184 20.1105 24.625C20.1105 27.7316 22.6428 30.25 25.7666 30.25Z" fill="#F5F5F5"/>
<path d="M26.5836 17.4375C25.2412 17.4375 23.9289 17.8334 22.8127 18.5751C21.6966 19.3168 20.8266 20.371 20.3129 21.6044C19.7992 22.8378 19.6648 24.195 19.9267 25.5044C20.1886 26.8137 20.835 28.0165 21.7842 28.9605C22.7334 29.9045 23.9428 30.5474 25.2594 30.8078C26.576 31.0683 27.9407 30.9346 29.1809 30.4237C30.4212 29.9128 31.4812 29.0476 32.227 27.9376C32.9728 26.8276 33.3708 25.5225 33.3708 24.1875C33.3688 22.3979 32.6531 20.6822 31.3807 19.4167C30.1082 18.1513 28.383 17.4395 26.5836 17.4375ZM26.5836 28.6875C25.6886 28.6875 24.8138 28.4236 24.0697 27.9291C23.3256 27.4346 22.7456 26.7318 22.4031 25.9096C22.0607 25.0873 21.971 24.1825 22.1456 23.3096C22.3202 22.4367 22.7512 21.6349 23.384 21.0055C24.0168 20.3762 24.8231 19.9476 25.7008 19.774C26.5785 19.6003 27.4883 19.6894 28.3151 20.03C29.142 20.3706 29.8486 20.9474 30.3458 21.6874C30.843 22.4275 31.1084 23.2975 31.1084 24.1875C31.1071 25.3806 30.6299 26.5244 29.7816 27.368C28.9333 28.2116 27.7832 28.6862 26.5836 28.6875Z" fill="#F5F5F5"/>
<path opacity="0.95" d="M9.67817 30.25C12.8019 30.25 15.3342 27.7316 15.3342 24.625C15.3342 21.5184 12.8019 19 9.67817 19C6.55441 19 4.02209 21.5184 4.02209 24.625C4.02209 27.7316 6.55441 30.25 9.67817 30.25Z" fill="#F5F5F5"/>
<path d="M9.80387 17C8.46147 17 7.14921 17.3959 6.03305 18.1376C4.91689 18.8793 4.04694 19.9335 3.53323 21.1669C3.01951 22.4003 2.8851 23.7575 3.14699 25.0669C3.40888 26.3762 4.05531 27.579 5.00453 28.523C5.95375 29.467 7.16313 30.1099 8.47973 30.3703C9.79634 30.6308 11.161 30.4971 12.4013 29.9862C13.6415 29.4753 14.7015 28.6101 15.4473 27.5001C16.1931 26.3901 16.5912 25.085 16.5912 23.75C16.5891 21.9604 15.8734 20.2447 14.601 18.9792C13.3286 17.7138 11.6033 17.002 9.80387 17ZM9.80387 28.25C8.90893 28.25 8.0341 27.9861 7.28999 27.4916C6.54588 26.9971 5.96592 26.2943 5.62344 25.4721C5.28096 24.6498 5.19136 23.745 5.36595 22.8721C5.54054 21.9992 5.97149 21.1974 6.60431 20.568C7.23712 19.9387 8.04337 19.5101 8.92111 19.3365C9.79885 19.1628 10.7086 19.2519 11.5355 19.5925C12.3623 19.9331 13.069 20.5099 13.5662 21.2499C14.0634 21.99 14.3287 22.86 14.3287 23.75C14.3274 24.9431 13.8502 26.0869 13.0019 26.9305C12.1537 27.7741 11.0035 28.2487 9.80387 28.25Z" fill="#F5F5F5"/>
<path d="M18.0994 15.1875C21.2232 15.1875 23.7555 12.6691 23.7555 9.5625C23.7555 6.4559 21.2232 3.9375 18.0994 3.9375C14.9757 3.9375 12.4434 6.4559 12.4434 9.5625C12.4434 12.6691 14.9757 15.1875 18.0994 15.1875Z" fill="#F5F5F5"/>
<path d="M24.8868 9.5625C24.8868 8.22748 24.4887 6.92244 23.7429 5.8124C22.9971 4.70237 21.9371 3.83721 20.6968 3.32632C19.4566 2.81542 18.0919 2.68175 16.7753 2.9422C15.4587 3.20265 14.2493 3.84553 13.3001 4.78953C12.3509 5.73354 11.7045 6.93627 11.4426 8.24564C11.1807 9.55502 11.3151 10.9122 11.8288 12.1456C12.3425 13.379 13.2125 14.4332 14.3286 15.1749C15.4448 15.9166 16.7571 16.3125 18.0995 16.3125C19.8989 16.3105 21.6241 15.5987 22.8966 14.3333C24.169 13.0678 24.8847 11.3521 24.8868 9.5625ZM18.0995 14.0625C17.2045 14.0625 16.3297 13.7986 15.5856 13.3041C14.8415 12.8096 14.2615 12.1068 13.919 11.2846C13.5766 10.4623 13.4869 9.55751 13.6615 8.6846C13.8361 7.81168 14.2671 7.00986 14.8999 6.38052C15.5327 5.75119 16.339 5.3226 17.2167 5.14897C18.0944 4.97534 19.0042 5.06445 19.831 5.40505C20.6579 5.74564 21.3645 6.32242 21.8617 7.06244C22.3589 7.80246 22.6243 8.67249 22.6243 9.5625C22.623 10.7556 22.1458 11.8994 21.2975 12.743C20.4492 13.5866 19.2991 14.0612 18.0995 14.0625Z" fill="#F5F5F5"/>
</svg>
