<svg width="36" height="36" viewBox="0 0 36 36" fill="none" xmlns="http://www.w3.org/2000/svg">
<path fill-rule="evenodd" clip-rule="evenodd" d="M4.5 7.875C4.5 8.77011 4.85558 9.62855 5.48852 10.2615C6.12145 10.8944 6.9799 11.25 7.875 11.25H11.25V7.875C11.25 7.43179 11.1627 6.99292 10.9931 6.58345C10.8235 6.17397 10.5749 5.80192 10.2615 5.48852C9.94809 5.17512 9.57603 4.92652 9.16656 4.75691C8.75709 4.5873 8.31821 4.5 7.875 4.5C7.43179 4.5 6.99292 4.5873 6.58345 4.75691C6.17397 4.92652 5.80192 5.17512 5.48852 5.48852C5.17512 5.80192 4.92652 6.17397 4.75691 6.58345C4.5873 6.99292 4.5 7.43179 4.5 7.875ZM13.5 13.5V7.875C13.5 6.76248 13.1701 5.67495 12.552 4.74992C11.9339 3.82489 11.0554 3.10392 10.0276 2.67818C8.99976 2.25244 7.86876 2.14104 6.77762 2.35809C5.68648 2.57513 4.6842 3.11086 3.89753 3.89753C3.11086 4.6842 2.57513 5.68648 2.35809 6.77762C2.14104 7.86876 2.25244 8.99976 2.67818 10.0276C3.10392 11.0554 3.82489 11.9339 4.74992 12.552C5.67495 13.1701 6.76248 13.5 7.875 13.5H13.5ZM31.5 7.875C31.5 8.77011 31.1444 9.62855 30.5115 10.2615C29.8786 10.8944 29.0201 11.25 28.125 11.25H24.75V7.875C24.75 6.9799 25.1056 6.12145 25.7385 5.48852C26.3715 4.85558 27.2299 4.5 28.125 4.5C29.0201 4.5 29.8786 4.85558 30.5115 5.48852C31.1444 6.12145 31.5 6.9799 31.5 7.875ZM22.5 13.5V7.875C22.5 6.76248 22.8299 5.67495 23.448 4.74992C24.0661 3.82489 24.9446 3.10392 25.9724 2.67818C27.0002 2.25244 28.1312 2.14104 29.2224 2.35809C30.3135 2.57513 31.3158 3.11086 32.1025 3.89753C32.8892 4.6842 33.4249 5.68648 33.6419 6.77762C33.859 7.86876 33.7476 8.99976 33.3218 10.0276C32.8961 11.0554 32.1751 11.9339 31.2501 12.552C30.3251 13.1701 29.2375 13.5 28.125 13.5H22.5ZM4.5 28.125C4.5 27.2299 4.85558 26.3715 5.48852 25.7385C6.12145 25.1056 6.9799 24.75 7.875 24.75H11.25V28.125C11.25 29.0201 10.8944 29.8786 10.2615 30.5115C9.62855 31.1444 8.77011 31.5 7.875 31.5C6.9799 31.5 6.12145 31.1444 5.48852 30.5115C4.85558 29.8786 4.5 29.0201 4.5 28.125ZM13.5 22.5V28.125C13.5 29.2375 13.1701 30.3251 12.552 31.2501C11.9339 32.1751 11.0554 32.8961 10.0276 33.3218C8.99976 33.7476 7.86876 33.859 6.77762 33.6419C5.68648 33.4249 4.6842 32.8892 3.89753 32.1025C3.11086 31.3158 2.57513 30.3135 2.35809 29.2224C2.14104 28.1312 2.25244 27.0002 2.67818 25.9724C3.10392 24.9446 3.82489 24.0661 4.74992 23.448C5.67495 22.8299 6.76248 22.5 7.875 22.5H13.5ZM31.5 28.125C31.5 27.2299 31.1444 26.3715 30.5115 25.7385C29.8786 25.1056 29.0201 24.75 28.125 24.75H24.75V28.125C24.75 29.0201 25.1056 29.8786 25.7385 30.5115C26.3715 31.1444 27.2299 31.5 28.125 31.5C29.0201 31.5 29.8786 31.1444 30.5115 30.5115C31.1444 29.8786 31.5 29.0201 31.5 28.125ZM22.5 22.5V28.125C22.5 29.2375 22.8299 30.3251 23.448 31.2501C24.0661 32.1751 24.9446 32.8961 25.9724 33.3218C27.0002 33.7476 28.1312 33.859 29.2224 33.6419C30.3135 33.4249 31.3158 32.8892 32.1025 32.1025C32.8892 31.3158 33.4249 30.3135 33.6419 29.2224C33.859 28.1312 33.7476 27.0002 33.3218 25.9724C32.8961 24.9446 32.1751 24.0661 31.2501 23.448C30.3251 22.8299 29.2375 22.5 28.125 22.5H22.5Z" fill="#F5F5F5"/>
<path fill-rule="evenodd" clip-rule="evenodd" d="M22.5 13.5H13.5V22.5H22.5V13.5ZM11.25 11.25V24.75H24.75V11.25H11.25Z" fill="#F5F5F5"/>
</svg>
