<svg width="36" height="36" viewBox="0 0 36 36" fill="none" xmlns="http://www.w3.org/2000/svg">
<path d="M30 6H6C5.60218 6 5.22064 6.15804 4.93934 6.43934C4.65804 6.72064 4.5 7.10218 4.5 7.5V12C4.5 12.3978 4.65804 12.7794 4.93934 13.0607C5.22064 13.342 5.60218 13.5 6 13.5C6.39782 13.5 6.77936 13.342 7.06066 13.0607C7.34196 12.7794 7.5 12.3978 7.5 12V9H16.5V28.5H13.5C13.1022 28.5 12.7206 28.658 12.4393 28.9393C12.158 29.2206 12 29.6022 12 30C12 30.3978 12.158 30.7794 12.4393 31.0607C12.7206 31.342 13.1022 31.5 13.5 31.5H22.5C22.8978 31.5 23.2794 31.342 23.5607 31.0607C23.842 30.7794 24 30.3978 24 30C24 29.6022 23.842 29.2206 23.5607 28.9393C23.2794 28.658 22.8978 28.5 22.5 28.5H19.5V9H28.5V12C28.5 12.3978 28.658 12.7794 28.9393 13.0607C29.2206 13.342 29.6022 13.5 30 13.5C30.3978 13.5 30.7794 13.342 31.0607 13.0607C31.342 12.7794 31.5 12.3978 31.5 12V7.5C31.5 7.10218 31.342 6.72064 31.0607 6.43934C30.7794 6.15804 30.3978 6 30 6Z" fill="#F5F5F5"/>
</svg>
