<svg width="172" height="172" viewBox="0 0 172 172" fill="none" xmlns="http://www.w3.org/2000/svg">
<path fill-rule="evenodd" clip-rule="evenodd" d="M86 0C71.8126 0.044489 58.1089 5.16145 47.3645 14.4265C39.13 21.5215 33.1637 30.7665 31.6265 40.0438C13.6095 44.0212 0 59.7162 0 78.6685C0 100.685 18.361 118.25 40.6457 118.25H80.625V61.3502L57.5555 84.4305C56.5462 85.4398 55.1773 86.0068 53.75 86.0068C52.3227 86.0068 50.9538 85.4398 49.9445 84.4305C48.9352 83.4212 48.3682 82.0523 48.3682 80.625C48.3682 79.1977 48.9352 77.8288 49.9445 76.8195L82.1945 44.5695C82.6938 44.0689 83.2869 43.6718 83.9399 43.4008C84.5929 43.1299 85.293 42.9904 86 42.9904C86.707 42.9904 87.407 43.1299 88.0601 43.4008C88.7131 43.6718 89.3062 44.0689 89.8055 44.5695L122.056 76.8195C123.065 77.8288 123.632 79.1977 123.632 80.625C123.632 82.0523 123.065 83.4212 122.056 84.4305C121.046 85.4398 119.677 86.0068 118.25 86.0068C116.823 86.0068 115.454 85.4398 114.444 84.4305L91.375 61.3502V118.25H136.396C155.896 118.25 172 102.877 172 83.5597C172 65.9727 158.648 51.643 141.535 49.2243C138.922 21.4893 114.918 0 86 0ZM80.625 155.875V118.25H91.375V155.875C91.375 157.301 90.8087 158.668 89.8007 159.676C88.7927 160.684 87.4255 161.25 86 161.25C84.5745 161.25 83.2073 160.684 82.1993 159.676C81.1913 158.668 80.625 157.301 80.625 155.875Z" fill="#F5F5F5"/>
</svg>
